<mxfile host="app.diagrams.net" modified="2024-03-20T20:56:06.876Z" agent="Mozilla/5.0 (Windows NT 10.0; Win64; x64) AppleWebKit/537.36 (KHTML, like Gecko) Chrome/123.0.0.0 Safari/537.36" etag="G2PGqDq2YsZ9lM_sMdBf" version="24.0.7" type="device">
  <diagram name="Page-1" id="U-ESv-vuaIhz5vJnnTxj">
    <mxGraphModel dx="1761" dy="534" grid="1" gridSize="10" guides="1" tooltips="1" connect="1" arrows="1" fold="1" page="1" pageScale="1" pageWidth="827" pageHeight="1169" math="0" shadow="0">
      <root>
        <mxCell id="0" />
        <mxCell id="1" parent="0" />
        <mxCell id="khWXqqfhRQtIV8HhjzXC-5" value="" style="endArrow=classic;html=1;rounded=0;entryX=0;entryY=0.5;entryDx=0;entryDy=0;exitX=1;exitY=0.5;exitDx=0;exitDy=0;" edge="1" parent="1" source="khWXqqfhRQtIV8HhjzXC-11" target="khWXqqfhRQtIV8HhjzXC-12">
          <mxGeometry width="50" height="50" relative="1" as="geometry">
            <mxPoint x="150" y="319.5" as="sourcePoint" />
            <mxPoint x="190" y="319.5" as="targetPoint" />
          </mxGeometry>
        </mxCell>
        <mxCell id="khWXqqfhRQtIV8HhjzXC-9" value="Upload Raw Requirements" style="rounded=0;whiteSpace=wrap;html=1;" vertex="1" parent="1">
          <mxGeometry x="-60" y="50" width="120" height="80" as="geometry" />
        </mxCell>
        <mxCell id="khWXqqfhRQtIV8HhjzXC-10" value="" style="endArrow=classic;html=1;rounded=0;exitX=0.5;exitY=1;exitDx=0;exitDy=0;entryX=0.429;entryY=-0.033;entryDx=0;entryDy=0;entryPerimeter=0;" edge="1" parent="1" source="khWXqqfhRQtIV8HhjzXC-9" target="khWXqqfhRQtIV8HhjzXC-11">
          <mxGeometry width="50" height="50" relative="1" as="geometry">
            <mxPoint x="360" y="220" as="sourcePoint" />
            <mxPoint x="400" y="80" as="targetPoint" />
          </mxGeometry>
        </mxCell>
        <mxCell id="khWXqqfhRQtIV8HhjzXC-11" value="Requirements Chain" style="swimlane;whiteSpace=wrap;html=1;" vertex="1" parent="1">
          <mxGeometry x="-60" y="270" width="140" height="100" as="geometry" />
        </mxCell>
        <mxCell id="khWXqqfhRQtIV8HhjzXC-18" value="PROMPT | LLM" style="text;html=1;align=center;verticalAlign=middle;whiteSpace=wrap;rounded=0;" vertex="1" parent="khWXqqfhRQtIV8HhjzXC-11">
          <mxGeometry x="10" y="50" width="120" height="30" as="geometry" />
        </mxCell>
        <mxCell id="khWXqqfhRQtIV8HhjzXC-12" value="Test Case Chain" style="swimlane;whiteSpace=wrap;html=1;" vertex="1" parent="1">
          <mxGeometry x="170" y="270" width="140" height="100" as="geometry" />
        </mxCell>
        <mxCell id="khWXqqfhRQtIV8HhjzXC-27" value="PROMPT | LLM" style="text;html=1;align=center;verticalAlign=middle;whiteSpace=wrap;rounded=0;" vertex="1" parent="khWXqqfhRQtIV8HhjzXC-12">
          <mxGeometry x="10" y="50" width="120" height="30" as="geometry" />
        </mxCell>
        <mxCell id="khWXqqfhRQtIV8HhjzXC-13" value="TM Chain" style="swimlane;whiteSpace=wrap;html=1;" vertex="1" parent="1">
          <mxGeometry x="400" y="270" width="140" height="100" as="geometry" />
        </mxCell>
        <mxCell id="khWXqqfhRQtIV8HhjzXC-21" value="PROMPT | LLM" style="text;html=1;align=center;verticalAlign=middle;whiteSpace=wrap;rounded=0;" vertex="1" parent="khWXqqfhRQtIV8HhjzXC-13">
          <mxGeometry x="10" y="50" width="120" height="30" as="geometry" />
        </mxCell>
        <mxCell id="khWXqqfhRQtIV8HhjzXC-14" value="Code Chain" style="swimlane;whiteSpace=wrap;html=1;" vertex="1" parent="1">
          <mxGeometry x="580" y="270" width="140" height="100" as="geometry" />
        </mxCell>
        <mxCell id="khWXqqfhRQtIV8HhjzXC-20" value="PROMPT | LLM" style="text;html=1;align=center;verticalAlign=middle;whiteSpace=wrap;rounded=0;" vertex="1" parent="khWXqqfhRQtIV8HhjzXC-14">
          <mxGeometry x="10" y="50" width="120" height="30" as="geometry" />
        </mxCell>
        <mxCell id="khWXqqfhRQtIV8HhjzXC-22" value="" style="endArrow=classic;html=1;rounded=0;entryX=0.571;entryY=0;entryDx=0;entryDy=0;entryPerimeter=0;exitX=0.702;exitY=-0.007;exitDx=0;exitDy=0;exitPerimeter=0;" edge="1" parent="1" source="khWXqqfhRQtIV8HhjzXC-11" target="khWXqqfhRQtIV8HhjzXC-13">
          <mxGeometry width="50" height="50" relative="1" as="geometry">
            <mxPoint x="70" y="370" as="sourcePoint" />
            <mxPoint x="480" y="200" as="targetPoint" />
            <Array as="points">
              <mxPoint x="40" y="200" />
              <mxPoint x="480" y="200" />
            </Array>
          </mxGeometry>
        </mxCell>
        <mxCell id="khWXqqfhRQtIV8HhjzXC-26" value="" style="endArrow=classic;html=1;rounded=0;" edge="1" parent="1">
          <mxGeometry width="50" height="50" relative="1" as="geometry">
            <mxPoint x="310" y="320" as="sourcePoint" />
            <mxPoint x="400" y="320" as="targetPoint" />
          </mxGeometry>
        </mxCell>
        <mxCell id="khWXqqfhRQtIV8HhjzXC-28" value="" style="endArrow=classic;html=1;rounded=0;" edge="1" parent="1">
          <mxGeometry width="50" height="50" relative="1" as="geometry">
            <mxPoint y="370" as="sourcePoint" />
            <mxPoint x="480" y="370" as="targetPoint" />
            <Array as="points">
              <mxPoint y="400" />
              <mxPoint x="240" y="400" />
              <mxPoint x="360" y="400" />
              <mxPoint x="480" y="400" />
            </Array>
          </mxGeometry>
        </mxCell>
        <mxCell id="khWXqqfhRQtIV8HhjzXC-29" value="Formatted Requirements" style="text;html=1;align=center;verticalAlign=middle;whiteSpace=wrap;rounded=0;" vertex="1" parent="1">
          <mxGeometry x="100" y="285" width="50" height="30" as="geometry" />
        </mxCell>
        <mxCell id="khWXqqfhRQtIV8HhjzXC-30" value="Formatted Test Cases" style="text;html=1;align=center;verticalAlign=middle;whiteSpace=wrap;rounded=0;" vertex="1" parent="1">
          <mxGeometry x="320" y="275" width="70" height="40" as="geometry" />
        </mxCell>
        <mxCell id="khWXqqfhRQtIV8HhjzXC-32" value="Formatted Requirements" style="text;html=1;align=center;verticalAlign=middle;whiteSpace=wrap;rounded=0;" vertex="1" parent="1">
          <mxGeometry x="200" y="170" width="50" height="30" as="geometry" />
        </mxCell>
        <mxCell id="khWXqqfhRQtIV8HhjzXC-33" value="" style="shape=flexArrow;endArrow=classic;html=1;rounded=0;" edge="1" parent="1">
          <mxGeometry width="50" height="50" relative="1" as="geometry">
            <mxPoint x="200" y="550" as="sourcePoint" />
            <mxPoint x="200" y="630" as="targetPoint" />
          </mxGeometry>
        </mxCell>
        <mxCell id="khWXqqfhRQtIV8HhjzXC-41" value="" style="endArrow=classic;html=1;rounded=0;entryX=0.578;entryY=0.007;entryDx=0;entryDy=0;entryPerimeter=0;exitX=0.702;exitY=-0.007;exitDx=0;exitDy=0;exitPerimeter=0;" edge="1" parent="1" target="khWXqqfhRQtIV8HhjzXC-14">
          <mxGeometry width="50" height="50" relative="1" as="geometry">
            <mxPoint x="240" y="269" as="sourcePoint" />
            <mxPoint x="682" y="270" as="targetPoint" />
            <Array as="points">
              <mxPoint x="240" y="240" />
              <mxPoint x="660" y="240" />
            </Array>
          </mxGeometry>
        </mxCell>
        <mxCell id="khWXqqfhRQtIV8HhjzXC-42" value="Formatted Test Cases" style="text;html=1;align=center;verticalAlign=middle;whiteSpace=wrap;rounded=0;" vertex="1" parent="1">
          <mxGeometry x="550" y="200" width="70" height="40" as="geometry" />
        </mxCell>
        <mxCell id="khWXqqfhRQtIV8HhjzXC-43" value="Formatted Requirements" style="text;html=1;align=center;verticalAlign=middle;whiteSpace=wrap;rounded=0;" vertex="1" parent="1">
          <mxGeometry x="210" y="410" width="50" height="30" as="geometry" />
        </mxCell>
      </root>
    </mxGraphModel>
  </diagram>
</mxfile>
